<svg xmlns="http://www.w3.org/2000/svg" viewBox="0 0 96.35822 97.6762">
    <defs>
        <style>.a{fill:#c99f42;}</style>
    </defs>
    <title>bmb</title>
    <polygon class="a" points="23.556 44.066 23.653 44.394 23.641 44.394 23.556 44.066" />
    <path class="a"
        d="M23.55569,44.06543l.08522.32873h.01219Zm0,0,.08522.32873h.01219Zm0,0,.08522.32873h.01219Z" />
    <polygon class="a" points="23.653 44.394 23.641 44.394 23.556 44.065 23.653 44.394" />
    <polygon class="a"
        points="76.355 51.455 76.257 51.516 76.196 51.492 76.27 51.431 76.355 51.455" />
    <polygon class="a"
        points="28.011 51.492 27.951 51.516 27.853 51.455 27.938 51.431 28.011 51.492" />
    <polygon class="a" points="51.958 42.325 51.337 42.325 51.848 42.13 51.958 42.325" />
    <path class="a"
        d="M16.6121,19.6479v.28458H8.54335C3.41725,19.93248,0,17.882,0,15.37646V13.95264C0,11.2765,4.31918,10.052,7.59414,9.53937,4.31918,9.02676.4746,7.80225.4746,5.12518V4.556C.4746,2.05044,3.89185,0,9.018,0H16.6121V.28458H14.71368V19.6479ZM4.27144,5.12518c0,2.53431,2.13573,4.27144,4.74652,4.27144h1.89842V.28458H9.018A4.53145,4.53145,0,0,0,4.27144,4.556Zm-.4746,10.25128A4.53143,4.53143,0,0,0,8.54335,19.6479h2.373V9.6812H9.018c-2.61079,0-5.22112,1.73713-5.22112,4.27144Z" />
    <path class="a"
        d="M81.64455,19.6479V.28458H79.74613V0h7.59414c5.1261,0,8.54335,2.05044,8.54335,4.556v.56916c0,2.67707-3.84458,3.90158-7.11954,4.41419,3.275.51261,7.59414,1.73713,7.59414,4.41327v1.42382c0,2.50558-3.41724,4.556-8.54335,4.556H79.74613V19.6479ZM92.08678,4.556A4.53144,4.53144,0,0,0,87.34027.28458H85.44185v9.112h1.89842c2.61079,0,4.74651-1.73713,4.74651-4.27144Zm.47461,9.39662c0-2.53431-2.61033-4.27144-5.22112-4.27144H85.44185v9.9667h2.373a4.53144,4.53144,0,0,0,4.74652-4.27144Z" />
    <path class="a"
        d="M42.958,0l6.07531,15.14842L54.25443,0h5.69572V.28458H58.05127V19.6479h1.89888v.28458H52.356V19.6479h1.89842V1.39508L47.8468,19.93248h-.75965L39.96761,2.221V19.6479H41.8665v.28458H37.35729V19.6479c1.51882,0,2.13572-.37078,2.13572-.85466V1.13924c0-.4848-.6169-.85466-2.13572-.85466V0Z" />
    <path class="a"
        d="M69.29282,28.7872l-.36676-.255-.03189-.02686H28.41326l-.39864.28182L9.188,41.803v2.885L48.3295,83.62121l.00532.00672.17538.17444.1382-.047H48.659l.1382.047.17538-.17444L88.07687,44.72819l.04253-.04026V41.803Zm-.48371,0L86.13682,40.763l-10.083-5.22642h.23387L64.1317,28.7872Zm-7.149,15.93427.016-2.29457-2.45032-8.17847L71.775,42.57453v1.95235L54.10716,67.03617Zm-8.17481,22.4891L48.91948,44.60071v-2.053l9.695-8.4603,2.53006,8.37975v2.1134ZM74.89507,35.389c-.33486.63738-1.06837,2.30124-2.9712,6.63538l-12.7247-8.45353-.0266-.01344.03189-.03353,4.26284-4.48844Zm.47307.1946,7.17025,6.90372v2.08654L63.35567,66.63359,72.2853,44.73486l.02125-2.24755C73.39085,40.01834,74.97481,36.43562,75.36814,35.58359ZM62.96234,28.7872l-4.2628,4.48172L49.552,28.7872Zm-14.30862.161,9.61,4.72324-9.61,8.39317-9.61-8.39317ZM33.94645,66.62688,14.769,44.57385V42.48731l7.17026-6.90372c.39332.852,1.97729,4.43475,3.06158,6.90372v2.19391Zm9.25914.416-17.67318-22.516V42.57453l12.54928-8.3261L35.642,42.33972l-.01064,2.3415ZM36.1629,44.58056v-2.1134L38.693,34.08741l9.695,8.4603v2.053L43.82215,67.21057ZM47.75544,28.7872l-9.14755,4.48172-4.2628-4.48172ZM38.103,33.52387l.03189.03353-.0266.01344L25.38357,42.02437c-1.90284-4.33414-2.63634-5.998-2.97121-6.63538l11.42778-6.35356ZM28.49832,28.7872h4.67741l-12.156,6.74942h.23387L11.17061,40.763ZM9.4538,44.56713V41.9573l11.853-6.14562-6.8035,6.55487v2.31467L34.26535,67.41188l.00532.00667.05846.07384L46.10241,81.03148Zm25.13577,22.8045.202-.08723-8.5522-20.97286,17.39146,22.147,4.48606,14.47168ZM48.65372,82.85636,44.1464,68.31088,48.659,45.96265l4.502,22.34823Zm5.02291-14.39785,17.39146-22.147L62.51588,67.2844l.202.08723L49.19056,82.93019Zm34.177-23.89138L51.205,81.03148,62.9783,67.49239l.05846-.06712,19.73551-22.7038.03189-.04025V42.36655l-6.80351-6.55487,11.853,6.14562Z" />
    <path class="a"
        d="M.14186,97.58435V97.4925h.448V91.27575h-.448v-.091H1.93509v.091h-.4484V97.4925H2.55132c.40353,0,.72861-.52982.72861-1.18807h.112v1.27992Z" />
    <path class="a"
        d="M21.2257,96.21343a1.41175,1.41175,0,0,1-1.34484,1.46277,1.62335,1.62335,0,0,1-1.79323-1.46277V91.27575h-.4484v-.091h1.79323v.091h-.4484v4.93768c0,.7586.3364,1.37092.8968,1.37092a1.30482,1.30482,0,0,0,1.23283-1.37092V91.27575h-.4484v-.091h1.06463v.091c-.35865,0-.50422.11906-.50422.27469Z" />
    <path class="a"
        d="M37.90508,94.83231,36.64963,97.4925h.42615v.09185H35.97722V97.4925a.74264.74264,0,0,0,.71729-.33762l1.15438-2.45949-1.42328-3.40093h-.44839v-.10971h1.83811v.10971h-.4484l1.0088,2.40421,1.15439-2.42292h-.42578v-.091h1.0982v.091a.7433.7433,0,0,0-.7173.33848l-1.05332,2.21285,1.53529,3.64757h.45934v.1097H38.58881v-.1097h.43709Z" />
    <path class="a"
        d="M58.26032,96.21343a1.41175,1.41175,0,0,1-1.34484,1.46277,1.62335,1.62335,0,0,1-1.79323-1.46277V91.27575h-.4484v-.091h1.79323v.091h-.4484v4.93768c0,.7586.33639,1.37092.8968,1.37092a1.30483,1.30483,0,0,0,1.23283-1.37092V91.27575h-.4484v-.091h1.06463v.091c-.35865,0-.50422.11906-.50422.27469Z" />
    <path class="a"
        d="M74.35667,94.476V97.4925h.4484v.09185H73.01183V97.4925h.448V91.27575h-.448v-.091h1.79324c1.2102,0,2.01725.65825,2.01725,1.46277v.36569c0,.6761-.58267,1.2527-1.47946,1.41684.89679.165,1.47946.74074,1.47946,1.41769v1.234c0,.17349.1007.31041.224.31041s.22438-.13692.22438-.31041h.112a.74374.74374,0,0,1-1.45721,0v-1.234A1.266,1.266,0,0,0,74.80507,94.476Zm0-3.20022V94.385h.4484a1.26652,1.26652,0,0,0,1.12045-1.37177v-.36569a1.26652,1.26652,0,0,0-1.12045-1.37177Z" />
    <path class="a"
        d="M93.27768,97.4925V94.71325l-1.19926-3.4375H91.63v-.091h1.79324v.091h-.4484L94.1183,94.567l1.2102-3.29122h-.43709v-.091H95.99v.091c-.39258,0-.60528.15563-.67278.33848L94.17412,94.7226v2.7699h.4484v.09185H92.82928V97.4925Z" />
</svg>